<svg xmlns="http://www.w3.org/2000/svg" x="0" y="0" width="512" height="512" viewBox="0 0 512 512" preserveAspectRatio="xMidYMid meet"><svg viewBox="0 0 41 41" class="segno" x="0" y="0" width="512" height="512"><path fill="#fff" d="M0 0h41v41h-41z" /><path class="qrline" stroke="#000" d="M2 2.5h7m2 0h1m1 0h7m4 0h3m1 0h1m1 0h1m1 0h7m-37 1h1m5 0h1m4 0h1m3 0h1m1 0h1m3 0h1m2 0h1m3 0h1m1 0h1m5 0h1m-37 1h1m1 0h3m1 0h1m1 0h2m1 0h5m2 0h2m3 0h1m1 0h3m2 0h1m1 0h3m1 0h1m-37 1h1m1 0h3m1 0h1m1 0h3m3 0h2m1 0h1m1 0h2m4 0h1m1 0h2m1 0h1m1 0h3m1 0h1m-37 1h1m1 0h3m1 0h1m4 0h2m1 0h1m7 0h1m1 0h1m5 0h1m1 0h3m1 0h1m-37 1h1m5 0h1m2 0h1m3 0h4m1 0h1m4 0h1m6 0h1m5 0h1m-37 1h7m1 0h1m1 0h1m1 0h1m1 0h1m1 0h1m1 0h1m1 0h1m1 0h1m1 0h1m1 0h1m1 0h1m1 0h7m-26 1h2m1 0h2m2 0h2m2 0h1m1 0h2m1 0h2m-26 1h2m1 0h2m3 0h1m2 0h4m2 0h1m1 0h4m2 0h1m4 0h2m-34 1h1m1 0h1m1 0h1m1 0h1m1 0h1m2 0h3m2 0h3m3 0h1m1 0h1m6 0h1m1 0h2m-34 1h1m1 0h1m1 0h3m1 0h1m2 0h1m1 0h2m6 0h1m1 0h1m3 0h2m2 0h2m1 0h1m-37 1h1m2 0h1m1 0h1m2 0h8m1 0h1m1 0h2m1 0h3m1 0h2m1 0h3m2 0h1m1 0h1m-36 1h1m4 0h1m1 0h1m1 0h1m4 0h4m1 0h1m1 0h1m5 0h1m1 0h2m4 0h1m-35 1h4m1 0h1m2 0h1m4 0h3m3 0h3m2 0h2m1 0h1m2 0h1m1 0h1m-35 1h4m2 0h1m2 0h3m1 0h1m1 0h1m2 0h1m1 0h4m2 0h4m2 0h5m-36 1h1m1 0h3m4 0h2m1 0h2m1 0h1m1 0h2m11 0h1m1 0h2m1 0h1m-35 1h3m1 0h1m3 0h1m2 0h1m1 0h1m2 0h3m3 0h2m1 0h1m2 0h1m3 0h1m1 0h1m-34 1h1m1 0h1m1 0h1m1 0h1m2 0h2m1 0h2m1 0h7m1 0h2m1 0h1m5 0h1m-36 1h2m2 0h3m1 0h3m1 0h4m1 0h3m1 0h2m2 0h1m1 0h1m3 0h1m1 0h2m1 0h1m-35 1h1m4 0h1m2 0h3m1 0h2m1 0h2m6 0h1m1 0h2m1 0h4m-34 1h1m5 0h1m2 0h1m2 0h1m2 0h1m3 0h3m2 0h1m1 0h1m1 0h3m1 0h1m2 0h2m-35 1h2m1 0h1m1 0h2m6 0h3m1 0h2m2 0h3m1 0h2m2 0h5m-36 1h2m1 0h1m2 0h1m1 0h1m2 0h12m1 0h2m1 0h1m4 0h2m1 0h2m-36 1h3m1 0h1m1 0h2m3 0h3m1 0h2m2 0h2m2 0h2m1 0h2m2 0h1m1 0h3m-36 1h3m1 0h5m1 0h1m1 0h1m1 0h1m2 0h1m3 0h1m1 0h3m2 0h3m4 0h2m-37 1h3m2 0h1m3 0h1m1 0h3m2 0h2m1 0h4m2 0h2m3 0h3m-33 1h2m1 0h1m1 0h2m4 0h2m1 0h2m3 0h6m1 0h3m1 0h7m-37 1h1m3 0h2m4 0h1m4 0h1m1 0h1m5 0h1m4 0h2m2 0h1m1 0h1m1 0h1m-37 1h1m1 0h1m1 0h1m1 0h2m1 0h1m1 0h3m1 0h1m2 0h3m1 0h1m2 0h1m1 0h6m1 0h3m-29 1h1m3 0h1m1 0h1m2 0h2m3 0h2m3 0h2m3 0h3m-35 1h7m1 0h1m1 0h2m2 0h1m5 0h1m1 0h2m1 0h1m2 0h1m1 0h1m1 0h3m1 0h1m-37 1h1m5 0h1m2 0h1m2 0h1m5 0h1m2 0h1m3 0h4m3 0h2m1 0h2m-37 1h1m1 0h3m1 0h1m1 0h2m1 0h1m1 0h1m4 0h1m3 0h1m3 0h7m-33 1h1m1 0h3m1 0h1m1 0h1m4 0h3m3 0h1m2 0h1m1 0h1m3 0h1m1 0h1m2 0h2m-35 1h1m1 0h3m1 0h1m2 0h2m1 0h1m1 0h3m1 0h2m2 0h2m1 0h2m4 0h2m2 0h2m-37 1h1m5 0h1m3 0h6m2 0h3m2 0h2m1 0h1m2 0h2m1 0h5m-37 1h7m2 0h2m1 0h2m6 0h2m1 0h2m3 0h1m2 0h1m1 0h1m2 0h1" /></svg><svg x="184.32" y="184.32" width="143.36" height="143.36" viewBox="0 0 30.0 30.0" preserveAspectRatio="xMidYMid meet"><rect x="0" y="0" width="30.0" height="30.0" fill="#FFFFFF" /><path d="M15,3C8.373,3,3,8.373,3,15c0,5.623,3.872,10.328,9.092,11.63C12.036,26.468,12,26.28,12,26.047v-2.051 c-0.487,0-1.303,0-1.508,0c-0.821,0-1.551-0.353-1.905-1.009c-0.393-0.729-0.461-1.844-1.435-2.526 c-0.289-0.227-0.069-0.486,0.264-0.451c0.615,0.174,1.125,0.596,1.605,1.222c0.478,0.627,0.703,0.769,1.596,0.769 c0.433,0,1.081-0.025,1.691-0.121c0.328-0.833,0.895-1.6,1.588-1.962c-3.996-0.411-5.903-2.399-5.903-5.098 c0-1.162,0.495-2.286,1.336-3.233C9.053,10.647,8.706,8.73,9.435,8c1.798,0,2.885,1.166,3.146,1.481C13.477,9.174,14.461,9,15.495,9 c1.036,0,2.024,0.174,2.922,0.483C18.675,9.17,19.763,8,21.565,8c0.732,0.731,0.381,2.656,0.102,3.594 c0.836,0.945,1.328,2.066,1.328,3.226c0,2.697-1.904,4.684-5.894,5.097C18.199,20.49,19,22.1,19,23.313v2.734 c0,0.104-0.023,0.179-0.035,0.268C23.641,24.676,27,20.236,27,15C27,8.373,21.627,3,15,3z" />
</svg></svg>